<?xml version="1.0" encoding="UTF-8" standalone="no"?>
<svg
   xmlns:dc="http://purl.org/dc/elements/1.1/"
   xmlns:cc="http://creativecommons.org/ns#"
   xmlns:rdf="http://www.w3.org/1999/02/22-rdf-syntax-ns#"
   xmlns:svg="http://www.w3.org/2000/svg"
   xmlns="http://www.w3.org/2000/svg"
   xmlns:xlink="http://www.w3.org/1999/xlink"
   xmlns:sodipodi="http://sodipodi.sourceforge.net/DTD/sodipodi-0.dtd"
   xmlns:inkscape="http://www.inkscape.org/namespaces/inkscape"
   id="svg2"
   height="506.37"
   width="268.75"
   version="1.1"
   viewBox="-60 -40 71.666561 135.03327"
   sodipodi:docname="Flag_map_of_Taiwan_(ROC).svg"
   inkscape:version="1.0.1 (3bc2e813f5, 2020-09-07)">
  <defs
     id="defs42" />
  <sodipodi:namedview
     pagecolor="#ffffff"
     bordercolor="#666666"
     borderopacity="1"
     objecttolerance="10"
     gridtolerance="10"
     guidetolerance="10"
     inkscape:pageopacity="0"
     inkscape:pageshadow="2"
     inkscape:window-width="1920"
     inkscape:window-height="991"
     id="namedview40"
     showgrid="false"
     inkscape:zoom="1.6234774"
     inkscape:cx="15.802361"
     inkscape:cy="253.18569"
     inkscape:window-x="-9"
     inkscape:window-y="-9"
     inkscape:window-maximized="1"
     inkscape:current-layer="svg2" />
  <metadata
     id="metadata21">
    <rdf:RDF>
      <cc:Work
         rdf:about="">
        <dc:format>image/svg+xml</dc:format>
        <dc:type
           rdf:resource="http://purl.org/dc/dcmitype/StillImage" />
      </cc:Work>
    </rdf:RDF>
  </metadata>
  <path
     id="rect4"
     fill="#d9221c"
     d="m-3.9917-40-0.15833 0.03333-0.125 0.13333-0.058333 0.18333h-0.73333l-0.23333-0.24167-0.14167 0.09167v0.225l-0.13333 0.09167-0.61667 0.09167-0.075-0.19167-0.075 0.075-0.033333 0.21667-0.16667 0.13333-0.41667 0.10833-0.16667 0.125-0.2 0.05833-0.425 0.90833-0.083333 0.0083-0.44167-0.05833-0.15833 0.125-0.00832 0.21667-0.125 0.13333-0.10833 0.35-0.091667 0.14167-0.033333 0.23333-0.10833 0.15-0.29167 0.21667-0.11667 0.14167-0.033333 0.225-0.24167 0.475-0.23333 0.06667-0.14167-0.01667 0.033333 0.13333 0.41667 0.38333 0.225 0.01667 0.43333 0.2 0.18333 0.31667 0.16667 0.125 0.125 0.15833 0.25833 0.53333 0.033333 0.925-0.10833 0.09167-0.024987-0.2-0.1-0.2-0.024987-0.2-0.25-0.325-0.00832-0.21667-0.083333-0.20833-0.60833-0.54167-0.375-0.2h-0.225l-0.14167 0.125-0.075 0.29167-0.45 0.43333-0.38333 0.15-0.15 0.10833-0.18333 0.04167-0.50833 0.34167-0.625 0.2-0.15833 0.1-1.4583 0.01667-0.29167 0.28333-0.19167 0.075-0.23333-0.01667-0.30833-0.24167-0.18333-0.06667-0.425 0.09167-0.125 0.125h-0.23333l-1.0083 0.41667-0.25833 0.0083-0.2 0.125-0.45 0.45-0.425 0.19167-0.19167 0.15833-1.4667 0.38333h-0.25l-0.35 0.18333-0.16667 0.15833-0.21667 0.05833-0.2 0.125-0.15 0.16667-0.30833 0.2-0.18333 0.05833-0.14167 0.14167-0.2 0.02499-0.475 0.21667-0.56667 0.49167-0.29167 0.43333-0.13333 0.1-0.125 0.35833-0.375 0.45833-0.0083 0.21667 0.10833 0.15v0.44167l-0.21667 0.23333-0.15 0.09167-0.15833 0.15833-0.075 0.16667-0.36667 0.49167-0.15833 0.125-0.71667 1.05 0.04167 0.23333 0.09167 0.18333-0.675 0.85-0.075 0.40833-0.11667 0.10833-0.06667 0.21667-0.24167 0.30833-0.06667 0.16667-0.13333 0.11667-0.18333 0.08333-0.61667 0.84167-0.15 0.14167 0.075 0.36667-0.03333 0.11667 0.05833 0.06667 0.23333 0.01667 0.03333 0.2-0.09167 0.18333-0.05 0.425-0.09167 0.14167-0.01667 0.475-0.225 0.30833-0.05833 0.18333 0.16667 0.13333-0.09167 0.125-0.075 0.21667-0.28333 0.25833-0.675 0.29167-0.10833 0.15833-0.15 0.13333-0.15 0.34167v0.225l-0.05 0.18333-0.10833 0.14167-0.05833 0.2-0.675 0.56667-0.18333 0.09167-0.125 0.13333-0.01667 0.21667 0.21667 0.03333 0.09167 0.2 0.18333 0.075 0.23333 0.03333 0.09167 0.125-0.15833 0.08333-0.275-0.05833-0.125-0.11667-0.475-0.175h-0.29167l-0.53333 0.25-0.675 0.02499-0.24167 0.29167-0.2 0.03333-0.375 0.65-0.075 0.39167-0.11667 0.10833 0.18333 0.14167 0.2 0.08333 0.0083 0.20833-0.125-0.03333h-0.16667l-0.31667 0.2 0.04167 0.24167-0.04167 0.19167-0.14167-0.20833-0.31667-0.275-0.38333 0.1-0.14167 0.15-0.01667 0.09167-0.275 0.35-1.1833 3.4833-0.13333 0.16667-0.15833 0.38333-0.625 0.83333-0.075 0.16667-0.375 0.475-0.45833 0.38333-0.38333 0.14167-0.02499 0.275-1.1083 1.5333-0.23333 0.56667 0.03333 0.45833-0.01667 0.066667-0.15 0.19167-0.06667 0.175-0.33333 0.15-0.125 0.21667-0.56667 0.38333 0.01667 0.16667 0.05833 0.14167 0.01667 0.25833-0.10833 0.125-0.29167-0.091667 0.34167 0.15 0.05833 0.15-0.125 0.175-0.10833 0.091667-0.275-0.35-0.10833 0.058333-0.13333 0.15-0.26667 0.14167 0.01667 0.20833-0.09167 0.15833-0.33333 0.2-0.10833 0.16667 0.50833 0.69167-0.01667 0.2-0.10833 0.15833-0.04167 0.175-0.125-0.225 0.01667-0.2-0.19167 0.2-0.175-0.016667-0.05-0.23333 0.10833-0.20833-0.01667-0.21667-0.15833 0.15-0.26667 0.78333 0.19167 0.15833 0.075 0.16667 0.08333 0.058333 0.0083-0.033333 0.21667 0.14167v0.23333l-0.075 0.18333-0.475 0.68333-0.14167 0.11667-0.175 0.45833 0.0083 0.24167-0.18333 0.05 0.05833 0.18333 0.08333 0.1-0.18333 0.1-0.4 0.5v0.016667l-0.325 0.525-0.15 0.091667-0.675 0.016667 0.02499 0.18333 0.19167 0.15-0.01667 0.45-0.125 0.1-0.075 0.16667-0.05 0.21667-0.10833 0.15833-0.0083 0.45833-0.01667 0.05-0.125 0.18333v0.225l0.075 0.15833-0.03333 0.225-0.16667 0.15833-0.36667 0.13333-0.09167 0.21667-0.275 0.29167-0.03333 0.43333-0.075 0.16667-0.325 0.058333-0.16667 0.14167-0.2 0.025-0.29167 0.21667-0.16667 0.066667-0.04167 0.19167-0.5 0.36667-0.09167 0.375v0.25833l-0.1 0.18333-0.03333 0.2-0.15833 0.10833-0.075 0.4-0.29167 0.01667-0.225-0.05-0.175 0.14167-0.11667 0.59167 0.04167 0.14167h0.45833v0.10833l-0.575 0.875-0.03333-0.01667-0.05 0.25-0.10833 0.13333-0.04167 0.18333-0.125 0.125-0.15 0.58333-0.25833 0.29167-0.06667 0.225-0.225 0.30833-0.08333 0.175-0.10833 0.125-0.02499 0.26667-0.15833 0.08333-0.13333 0.11667-0.175 0.09167-0.1 0.15833-0.175 0.09167v0.16667l0.10833 0.15833-0.075 0.05833h-0.225l-0.10833 0.15-0.03333 0.45-0.05 0.125h-0.45833l-0.15-0.08333-0.175-0.03333-0.05833 0.19167-0.20833 0.0083-0.74167 1.325-0.01667 0.075-0.25833-0.01667-0.15833 0.09167-0.24167 0.29167-0.075 0.2-0.03333 0.45833-0.125 0.14167-0.02499 0.2 0.2 0.29167-0.03333 0.21667-0.2 0.28333-0.38333 0.01667-0.04167 0.19167v0.225l-0.26667 0.14167v0.29167l-0.01667-0.01667-0.05833 0.03333-0.04167 0.19167v0.23333l0.05833 0.16667 0.23333 0.01667 0.16667 0.25-0.28333 0.33333-0.16667 0.34167-0.04167 0.175-0.23333 0.38333-0.11667 0.43333-0.15833 0.23333-0.31667 0.9 0.02499 0.90833-0.04167 0.18333 0.01667 0.16667 0.20833 0.10833-0.01667 0.2-0.18333 0.075-0.25833 0.2 0.05833 0.26667 0.14167 0.075 0.18333 0.025 0.01667 0.23333-0.125 0.15v0.45833l0.15 0.11667 0.25 0.33333 0.16667 0.14167-0.15 0.09167-0.10833 0.2-0.21667 0.01667-0.05833-0.175-0.125-0.10833-0.18333 0.10833-0.275 0.325-0.18333 0.09167-0.05 1.1 0.10833 0.19167 0.21667 0.075 0.69167-0.05 0.16667 0.075v0.23333l-0.09167 0.16667-0.06667 0.21667-0.1 0.14167v0.24167l-0.09167 0.18333 0.04167 0.25 0.2 0.1h0.2l-0.25833 0.50833-0.01667 0.21667 0.18333 0.04167v0.20833l-0.125 0.38333 0.01667 0.225 0.09167 0.18333 0.15 0.125 0.175-0.15 0.075 0.1 0.03333 0.43333-0.125 0.2-0.15833 0.60833-0.44167 0.19167-0.16667-0.01667-0.36667 0.84167-0.01667 0.61667 0.05 0.18333h0.45833l0.19167 0.075 0.05 0.2-0.125-0.125-0.86667-0.15-0.475 0.825 0.075 0.15833 0.11667 0.0083-0.075 0.23333-0.15833 0.10833-0.02499 0.20833 0.33333 0.20833 0.14167 0.025 0.2-0.05833-0.26667 0.38333-0.40833 0.15-0.10833 0.15833 0.03333 0.20833 0.09167 0.19167-0.30833 0.28333-0.05 0.2-0.09167 0.175-0.29167-0.08333-0.075 0.15833-0.09167 0.41667 0.01667 0.45833-0.6 1.1167-0.05833 0.43333-0.18333 0.30833 0.13333-0.175 0.19167-0.075 0.175-0.01667 0.08333 0.96667 0.13333 0.10833 0.18333 0.075-0.1 0.65-0.4 0.16667h-0.03333l-0.425 0.14167-0.38333 0.35-0.4 0.18333-0.03333 0.425 0.03333 0.06667 0.02499 0.44167 0.09167 0.10833h0.23333l-0.01667 0.725 0.09167 0.29167 0.25833 0.3 0.03333 0.1 0.23333-0.08333 0.29167-0.24167 0.02499 0.2-0.02499 0.21667 0.56667 0.33333 0.10833 0.03333 0.20833 0.19167 0.38333 0.20833 0.48333 0.5 0.18333 0.09167 0.64167 0.6 0.01667 0.05833 0.41667 0.4 0.29167 0.45 0.19167-0.05 0.28333-0.25833 0.16667-0.09167-0.125 0.25833-0.10833 0.14167v0.15l0.4 0.10833-0.2 0.16667-0.22505-0.0083-0.125-0.175-0.10833-0.05833 0.09167 0.23333 0.14167 0.175 0.05833 0.20833-0.05833 1.1583-0.06667 0.175 0.06667 0.2 0.20833 0.24167 0.09167 0.50833 0.36667 0.76667v0.225h0.08333l0.02499-0.19167 0.08333-0.15833 0.225-0.01667 0.25833 0.61667-0.02499 0.2-0.23333 0.025-0.16667-0.10833-0.09167-0.15-0.05 0.10833 0.01667 0.21667 0.09167 0.275 0.01667 0.21667 0.21667 0.40833v0.16667l1.0833 2.5667 0.02499 0.21667 0.175 0.41667 0.16667 0.20833 0.59167 1.2583 0.55 0.675-0.25833 0.30833-0.475-0.475 0.3 0.73333-0.49167 0.475-0.02499 0.50833-0.05833 0.2 0.05833 0.21667 0.33333 0.30833 0.10833 0.16667v0.23333l0.10833 0.11667-0.01667 0.23333-0.13333 0.09167 0.09167 0.13333 0.18333 0.09167 0.15 0.425 0.325 0.31667 0.075 0.16667 0.15833 0.21667 0.13333 0.09167 0.125 0.14167 0.075 0.16667 0.36667 0.45833 0.09167 0.21667-0.31667 0.05833-0.06667 0.08333v0.075l0.2 0.04167 0.4-0.01667 0.075 0.01667 0.4 0.43333 0.16667 0.09167 0.28333 0.3 0.075 0.175 1.4833 1.1667 0.21667 0.09167 0.33333 0.30833 0.66667 0.19167 0.02499-0.075-0.10833-1.7667 0.10833-0.35 0.10833-0.13333 0.2 0.04167v0.23333l-0.09167 0.13333-0.01667 0.45833-0.05833 0.15833 0.09167 0.21667 0.01667 1.1 0.35 0.03333 0.24167 0.23333-0.0083 0.21667-0.10833 0.02499 0.21667 0.29167 0.60833 0.45 0.10833 0.15 0.16667 0.075 0.05833 0.01667 0.01667 0.04167 0.375 0.15833 0.13333 0.15 0.18333 0.125 0.35833 0.125 0.13333 0.11667 0.18333 0.09167 0.125 0.10833 0.2 0.09167 0.14167 0.125 1.1583 0.63333 0.14167 0.16667 0.2 0.05833 1.3167 1.0583 0.10833 0.15833 0.24167 0.65833-0.04167 0.09167 0.65833 0.44167 0.70833 0.89167 0.05833 0.18333v0.58333l0.21667 0.35 0.09167 0.41667-0.01667 0.21667-0.05833 0.18333 0.01667 0.18333 0.49167 0.41667 0.1 0.15 0.15833 0.125 0.09167 0.15 0.125 0.43333 0.39167 0.40833-0.1 0.21667v0.23333l0.04167 0.21667 0.14167 0.15 0.2 0.6 0.01667 0.675 0.11667 0.4v0.225l0.08333 0.15833 0.05833 0.25833 0.15 0.14167 0.09167 0.15 0.03333 0.21667 0.16667 0.16667 0.03333 0.43333 0.09167 0.15-0.01667 0.23333-0.09167 0.15-0.63333 0.18333 0.03333 0.2 0.21667 0.04167 0.05833 0.15833-0.0083 0.075 0.04167 0.2 0.075 0.15833-0.075 0.15-0.10833 0.11667-0.30833 0.19167-0.02499 0.19167 0.11667 0.14167-0.45833 0.43333v0.44167l0.18333 0.10833v0.23333l0.15833 0.13333-0.05 0.18333 0.475 0.41667 0.05 0.16667 0.15 0.15833 0.09167 0.15 0.06667 0.30833-0.10833 0.36667 0.01667 0.725-0.14167 0.31667 0.10833 0.14167 0.20833 0.02499 0.11667 0.4 0.11667 0.2 0.475 0.05 0.18333-0.29167 0.14167-0.10833 0.03333-0.2-0.09167-0.38333 0.075-0.16667 0.16667-0.075 0.24167-0.26667 0.15833-0.075h0.225l0.06667 0.16667 0.50833 0.35 0.05833 0.01667 0.275-0.01667 0.2 0.05 0.075 0.15833 0.18333 0.04167 0.16667 0.10833 0.23333 0.075 0.23333 0.01667 0.45833 0.45833 0.01667 0.21667 0.225 0.075 0.11667 0.09167 0.075 0.15833 0.0083 0.20833 0.325 0.30833h0.225l0.15833-0.10833-0.02499-0.2-0.13333-0.10833-0.04167-0.19167 0.01667-0.21667-0.05833-0.16667-0.6-0.90833v-0.89167l0.05833-0.16667-0.075-0.16667 0.06667-0.375 0.11667-0.04167 0.01667-0.2 0.41667-0.06667 0.2-0.075 0.075-0.15 0.18333-0.04167 0.15-0.125 0.06667-0.18333 0.0083-0.21667 0.10833-0.125 0.21667-0.01667 0.05-0.40833 0.44167-0.29167 0.04167-0.175-0.24167-0.3-0.01667-1.1333-0.13333-0.20833v-0.225l0.31667-0.55 0.125-0.125v-0.18333l-0.18333-0.075-0.25-0.26667-0.075-0.2-0.02499-0.58333 0.02499-0.08333 0.10833-0.0083 0.05833-0.075 0.09167-0.05833 0.03333-0.09167-0.1-0.16667 0.0083-0.44167-0.10833-0.15833 0.03333-0.075 0.06667-0.06667 0.03333-0.075 0.02499-0.09167-0.02499-0.09167v-0.23333l-0.03333-0.11667-0.05-0.06667 0.0083-0.13333-0.075-0.1-0.04167-0.10833 0.02499-0.19167 0.16667-0.14167 0.05-0.075 0.01667-0.08333 0.0083-0.225-0.02499-0.1v-0.08333l0.01667-0.05833-0.1-0.125 0.09167-0.4 0.11667-0.14167 0.06667-0.16667-0.125-0.14167-0.13333-2.0083-0.15833-0.2-0.03333-0.65 0.075-0.175v-0.425l0.35833-1.1083 0.30833-0.30833 0.05833-0.60833 0.10833-0.15833 0.43333-1.225 0.1-0.14167 0.06667-0.16667 0.225-0.30833 0.05-0.20833 0.11667-0.15833 0.03333-0.43333 0.10833-0.13333 0.06667-0.425 0.15-0.20833-0.01667-0.25833 0.25833-0.50833v-0.45833l0.10833-0.10833v-0.225l0.35833-0.83333v-0.30833l0.15-0.08333v-0.23333l0.075-0.2 0.01667-0.21667 0.10833-0.15 0.03333-0.2 0.08333-0.15 0.20833-0.10833 0.1-0.15833 0.43333-0.38333 0.24167-0.34167v-0.16667l0.09167-0.18333 0.02499-0.63333 0.02499-0.075-0.01667-0.20833 0.09167-0.18333 0.01667-0.21667 0.10833-0.14167 0.03333-0.2 0.13333-0.15 0.10833-0.38333 0.2-0.31667 0.13333-0.125 0.5-0.21667 0.13333-0.125 0.21667-0.01667 0.125-0.15 0.04167-0.18333 0.325-0.15833 0.25833-0.21667 0.15-0.075 0.10833-0.13333 0.21667-0.01667 0.125-0.125 0.225-0.03333 0.175-0.075 0.11667-0.1 0.26667-0.08333 0.24167-0.15 0.45833-0.55 0.19167-0.075 0.13333-0.1 0.09167-0.13333 0.30833-0.25 0.09167-0.15 0.14167-0.125 0.33333-0.13333 0.25833-0.25 0.15833-0.96667 0.16667-0.16667 0.2-0.025 0.25833-0.23333 0.05833-0.2-0.13333-0.34167 0.04167-0.20833-0.11667-0.14167-0.15833-0.075-0.075-0.15833 0.09167-0.15h0.23333l-0.05-0.15833-0.21667-0.24167-0.075-0.15 0.03333-0.2 0.09167-0.14167 0.7-0.58333 0.41667-0.05833 0.175-0.06667 0.38333 0.1 0.0083-0.36667 0.3-0.30833 0.175-0.05 0.14167-0.125 0.075-0.38333 0.25833-0.53333 0.26667-0.25 0.40833-0.9 0.03333-0.38333 0.08333-0.03333 0.1-0.18333 0.14167-0.125 0.21667-0.0083 0.05833-0.175 0.4-0.41667v-0.225l0.05833-0.18333 0.09167-0.10833 0.15833-0.61667 0.11667-0.2 0.125-0.35 0.125-0.13333 0.13333-0.1 0.03333-0.19167 0.14167-0.20833 0.10833-0.68333 0.11667-0.175 0.175-0.6 0.24167-0.34167v-0.23333l0.09167-0.15v-0.23333l0.16667-0.09167 0.10833-0.14167 0.45833-0.01667 0.15833-0.075 0.25833-0.50833 0.15-0.125 0.45-0.0083 0.10833-0.35833-0.375-0.38333-0.0083-0.65833 0.16667-0.16667 0.033333-0.44167-0.05-0.21667-0.23333-0.45833-0.03333-0.96667 0.35833-0.25-0.016667-0.16667-0.11667-0.125 0.13333-0.05833 0.10833 0.16667 0.16667 0.03333 0.18333-0.14167 0.1-0.15-0.066667-0.175-0.10833-0.13333 0.21667-0.76667 0.016667-0.23333 0.058333-0.18333 0.125-0.15 0.041667-0.49167 0.14167-0.14167 0.016667-0.2 0.075-0.16667 0.16667-0.15 0.091667-0.15833 0.14167-0.38333 0.15-0.11667 0.18333-0.05h0.23333l0.18333-0.125 0.13333-0.675-0.00832-0.66667 0.21667-0.46667 0.225-1.55 0.16667-0.10833v-0.225l0.45-1.1167 0.041667-0.45 0.058333-0.18333v-0.23333l0.1-0.18333-0.2-0.125-0.05-0.05833 0.21667-0.01667 0.18333-0.075 0.125-0.13333 0.058333-0.19167 0.016667-0.44167-0.2-0.30833v-0.45833l-0.075-0.2-0.058333-0.05 0.024987-0.25833 0.10833-0.16667 0.016667-0.44167 0.15-0.4 0.016667-0.23333 0.2-0.29167 0.05-0.2 0.16667-0.15 0.10833-0.36667 0.016667-0.48333 0.1-0.20833 0.016667-1.55 0.15833-0.18333 0.058333-0.41667 0.18333-0.075 0.125-0.13333-0.091667-0.14167-0.016667-0.15833 0.10833-0.125 0.10833-0.84167 0.075-0.15 0.033333-0.2 0.1-0.13333-0.091667-0.30833-0.1-0.075 0.00832-0.21667 0.083333-0.16667v-0.21667l0.2-0.14167 0.425-0.65833 0.16667-0.78333-0.058333-0.16667v-1.275l0.15833-0.41667 0.31667-0.425 0.033333-0.21667 0.225-0.475 0.033333-0.2 0.075-0.16667v-0.23333l0.23333-0.525 0.041667-0.40833 0.075-0.15 0.016667-0.68333 0.066667-0.2 0.075-0.88333 0.058333-0.16667-0.00832-0.675-0.175-0.375 0.125-0.36667 0.14167-0.13333 0.075-0.2 0.125-0.10833h0.18333l0.083333 0.13333 0.23333-0.01667 0.091667-0.36667h-0.19167l0.13333-0.30833 0.18333-0.05833-0.075-0.15 0.041667-0.2 0.175 0.04167 0.11667-0.40833v-0.23333l-0.875-0.90833-0.058333-0.4-0.075-0.15-0.016667-1.4417 0.18333-0.325 0.425-0.40833 0.18333-0.1 0.39167-0.45 0.16667-0.058333 0.16667-0.3 0.05 0.033333 0.033333-0.058333 0.058333-0.63333 0.091667-0.091667-0.29167-0.525v-0.69167l0.125-0.4 0.475-0.64167 0.15-0.091667 0.10833-0.13333 0.18333-0.05 0.4-0.35 0.2-0.033333 0.14934-0.124 0.3667-0.6666 0.4333-0.0417 0.024987-0.016667 0.1-0.23333 0.18333-0.075 0.13333-0.325 0.14167-0.1 0.016667-0.675 0.325-0.475 0.26667-0.25 0.11667-0.18333 0.175-0.075 0.075-0.15833-0.00832-0.64167-0.091667-0.15 0.016667-0.45 0.3-0.58333 0.05-0.18333 0.18333-0.30833 0.066667-1.3167 0.058333-0.2 0.10833-0.14167v-0.25833l0.11667-0.425 0.21667-0.29167 0.058333-0.21667 0.325-0.2 0.125-0.14167 0.15-0.31667 0.016667-0.21667 0.55-0.51667 0.55833-0.23333h0.225l0.066667-0.033333-0.175-0.091667-0.11667-0.125-0.091667-0.15v-0.23333l-0.30833-0.18333-0.058333-0.6 0.20833-0.13333 0.10833-0.15833 0.4-0.075 0.33333-0.20833 0.2-0.05 0.066667-0.2-0.016667-0.18333-0.075-0.21667-0.016667-0.21667-0.091667-0.13333-0.033333-0.43333 0.091667-0.13333-0.10833-0.175 0.083333-0.175h0.225l-0.033333-0.175-0.11667-0.10833-0.033333-0.05833 0.18333-0.075-0.15 0.03333-0.21667-0.08333-0.016667-0.15-0.29167-0.26667 0.05-0.19167 0.20833-0.01667 0.19167 0.10833 0.024987 0.21667 0.21667-0.01667 0.18333-0.1-0.44167-0.44167-0.36667-0.11667-0.05-0.09167-0.066667-0.02499-0.19158-0.26669-0.016667-0.15833-0.44167-1.1083-0.016667-0.45833-0.1-0.13333 0.05-0.075v-0.25l-0.058333-0.2 0.058333-1.2417-0.35-0.38333-0.10833-0.18333v-0.2l-0.16667-0.2-0.075-0.40833 0.00832-0.21667-0.125-0.125 0.066667-1.7083 0.075-0.25833v-0.225l0.15833-0.34167-0.033333-0.44167 0.11667-0.36667 0.016667-0.21667 0.29167-0.63333 0.033333-0.20833 0.15833-0.26667 0.18333-0.09167 0.11667-0.35 0.10833-0.14167 0.16667-0.05833 0.45833-0.54167 0.15833-0.075 0.38333-0.44167 0.033333-0.425 0.058333-0.19167 0.34167-0.19167 0.18333-0.05 0.18333-0.25833 0.14167-0.11667 0.15-0.075 0.3-0.425 0.033333-0.225 0.21667-0.13333 0.21667-0.02499 0.15-0.06667 0.14167-0.13333 0.2-0.03333 0.15-0.09167 0.23333-0.01667 0.475-0.20833 0.09167-0.19167 0.21667-0.0083 0.08333-0.14167 0.34167-0.15 0.09167-0.16667 0.23333-0.01667 0.08333-0.175 0.0083-0.18333-0.23333-0.24167-0.16667 0.01667-0.14167 0.125-0.13333-0.26667-0.16667-0.05833-0.10833-0.125-0.18333-0.04167-0.21667 0.0083-0.1 0.10833-0.20833 0.125-0.49167-0.04167-0.6-0.49167-0.041667-0.175v-0.69167l-0.075-0.09167 0.16667-0.11667-0.033333-0.075-0.5-0.50833-0.15833-0.375 0.18333-0.55 0.18333-0.125 0.05-0.175-0.083333-0.15833-0.11667-0.10833-0.075-0.10833 0.091667-0.15 0.15-0.09167v-0.23333l-0.21667-0.0083-0.2 0.04167-0.11667 0.125-0.41667 0.13333h-0.23333l-0.71667-0.15-0.18333 0.075-0.175-0.075-0.53333-0.01667-0.35-0.10833-0.16667 0.09167-0.15833 0.15h-0.2l-0.125-0.15 0.05-0.2 0.091667-0.15 0.075-0.075h-0.23333l-0.19167 0.075h-0.23333l-0.10833-0.14167 0.058333-0.40833-0.20833 0.01667-0.29167 0.175-0.26667-0.24167-0.225-0.01667-0.10833-0.075v-0.25833l-0.2-0.05-0.091667 0.16667-0.18333 0.05-0.041667-0.18333h-0.15833l0.058333 0.18333 0.175 0.25-0.21667 0.26667-0.34167 0.25-0.15 0.01667 0.275-0.26667-0.091667-0.16667v-0.38333l-0.18333-0.0083-0.16667-0.09167-0.21667-0.03333-0.25-0.25h-0.475l-0.13333-0.09167 0.033333-0.16667-0.091667-0.18333-0.2-0.04167-0.15833-0.125-0.18333-0.06667-0.2-0.13333-0.058333-0.15833 0.075-0.18333 0.35-0.16667-0.033333-0.09167-0.13333-0.125 0.125-0.13333 0.16667-0.09167 0.15-0.14167-0.041667-0.13333-0.55 0.475-0.76667 0.04167-0.6-0.61667-0.033333-0.15 0.15-0.15833-0.075-0.15h-0.24167l-0.16667-0.075-0.25-0.25 0.066667-0.45833-0.05-0.21667-0.075-0.15-0.14167-0.11667-0.44167-0.63333-0.38333-0.125-0.21667-0.275-0.16667-0.09167h-0.23333l-0.16667-0.10833-0.125-0.13333-0.15-0.09167-0.05-0.01667h-0.00832z"
     style="fill:#fe0000;fill-opacity:1" />
  <path
     id="rect6"
     fill="#082567"
     d="m-3.9917-40-0.15833 0.03333-0.125 0.13333-0.058333 0.18333h-0.73333l-0.23333-0.24167-0.14167 0.09167v0.225l-0.13333 0.09167-0.61667 0.09167-0.075-0.19167-0.075 0.075-0.033333 0.21667-0.16667 0.13333-0.41667 0.10833-0.16667 0.125-0.2 0.05833-0.425 0.90833-0.083333 0.0083-0.44167-0.05833-0.15833 0.125-0.00832 0.21667-0.125 0.13333-0.10833 0.35-0.091667 0.14167-0.033333 0.23333-0.10833 0.15-0.29167 0.21667-0.11667 0.14167-0.033333 0.225-0.24167 0.475-0.23333 0.06667-0.14167-0.01667 0.033333 0.13333 0.41667 0.38333 0.225 0.01667 0.43333 0.2 0.18333 0.31667 0.16667 0.125 0.125 0.15833 0.25833 0.53333 0.033333 0.925-0.10833 0.09167-0.024987-0.2-0.1-0.2-0.024987-0.2-0.25-0.325-0.00832-0.21667-0.083333-0.20833-0.60833-0.54167-0.375-0.2h-0.225l-0.14167 0.125-0.075 0.29167-0.45 0.43333-0.38333 0.15-0.15 0.10833-0.18333 0.04167-0.50833 0.34167-0.625 0.2-0.15833 0.1-1.4583 0.01667-0.29167 0.28333-0.19167 0.075-0.23333-0.01667-0.30833-0.24167-0.18333-0.06667-0.425 0.09167-0.125 0.125h-0.23333l-1.0083 0.41667-0.25833 0.0083-0.2 0.125-0.45 0.45-0.425 0.19167-0.19167 0.15833-1.4667 0.38333h-0.25l-0.35 0.18333-0.16667 0.15833-0.21667 0.05833-0.2 0.125-0.15 0.16667-0.30833 0.2-0.18333 0.05833-0.14167 0.14167-0.2 0.02499-0.475 0.21667-0.56667 0.49167-0.29167 0.43333-0.13333 0.1-0.125 0.35833-0.375 0.45833-0.0083 0.21667 0.10833 0.15v0.44167l-0.21667 0.23333-0.15 0.09167-0.15833 0.15833-0.075 0.16667-0.36667 0.49167-0.15833 0.125-0.71667 1.05 0.04167 0.23333 0.09167 0.18333-0.675 0.85-0.075 0.40833-0.11667 0.10833-0.06667 0.21667-0.24167 0.30833-0.06667 0.16667-0.13333 0.11667-0.18333 0.08333-0.61667 0.84167-0.15 0.14167 0.075 0.36667-0.03333 0.11667 0.05833 0.06667 0.23333 0.01667 0.03333 0.2-0.09167 0.18333-0.05 0.425-0.09167 0.14167-0.01667 0.475-0.225 0.30833-0.05833 0.18333 0.16667 0.13333-0.09167 0.125-0.075 0.21667-0.28333 0.25833-0.675 0.29167-0.10833 0.15833-0.15 0.13333-0.15 0.34167v0.225l-0.05 0.18333-0.10833 0.14167-0.05833 0.2-0.675 0.56667-0.18333 0.09167-0.125 0.13333-0.01667 0.21667 0.21667 0.03333 0.09167 0.2 0.18333 0.075 0.23333 0.03333 0.09167 0.125-0.15833 0.08333-0.275-0.05833-0.125-0.11667-0.475-0.175h-0.29167l-0.53333 0.25-0.675 0.02499-0.24167 0.29167-0.2 0.03333-0.375 0.65-0.075 0.39167-0.11667 0.10833 0.18333 0.14167 0.2 0.08333 0.0083 0.20833-0.125-0.03333h-0.16667l-0.31667 0.2 0.04167 0.24167-0.04167 0.19167-0.14167-0.20833-0.31667-0.275-0.38333 0.1-0.14167 0.15-0.01667 0.09167-0.275 0.35-1.1833 3.4833-0.13333 0.16667-0.15833 0.38333-0.625 0.83333-0.075 0.16667-0.375 0.475-0.45833 0.38333-0.38333 0.14167-0.02499 0.275-1.1083 1.5333-0.23333 0.56667 0.03333 0.45833-0.01667 0.066667-0.15 0.19167-0.06667 0.175-0.33333 0.15-0.125 0.21667-0.56667 0.38333 0.01667 0.16667 0.05833 0.14167 0.01667 0.25833-0.10833 0.125-0.29167-0.091667 0.34167 0.15 0.05833 0.15-0.125 0.175-0.10833 0.091667-0.275-0.35-0.10833 0.058333-0.13333 0.15-0.26667 0.14167 0.01667 0.20833-0.09167 0.15833-0.33333 0.2-0.10833 0.16667 0.50833 0.69167-0.01667 0.2-0.10833 0.15833-0.04167 0.175-0.125-0.225 0.01667-0.2-0.19167 0.2-0.175-0.016667-0.05-0.23333 0.10833-0.20833-0.01667-0.21667-0.15833 0.15-0.26667 0.78333 0.19167 0.15833 0.075 0.16667 0.08333 0.058333 0.0083-0.033333 0.21667 0.14167v0.23333l-0.075 0.18333-0.475 0.68333-0.14167 0.11667-0.175 0.45833 0.0083 0.24167-0.18333 0.05 0.05833 0.18333 0.08333 0.1-0.18333 0.1-0.4 0.5v0.016667l-0.325 0.525-0.15 0.091667-0.675 0.016667 0.02499 0.18333 0.19167 0.15-0.01667 0.45-0.125 0.1-0.075 0.16667-0.05 0.21667-0.10833 0.15833-0.0083 0.45833-0.01667 0.05-0.125 0.18333v0.225l0.075 0.15833-0.03333 0.225-0.16667 0.15833-0.36667 0.13333-0.09167 0.21667-0.275 0.29167-0.03333 0.43333-0.075 0.16667-0.325 0.058333-0.16667 0.14167-0.2 0.025-0.29167 0.21667-0.16667 0.066667-0.04167 0.19167-0.5 0.36667-0.09167 0.375v0.25833l-0.1 0.18333-0.03333 0.2-0.15833 0.10833-0.075 0.4-0.29167 0.01667-0.225-0.05-0.175 0.14167-0.11667 0.59167 0.04167 0.14167h0.45833v0.10833l-0.575 0.875-0.03333-0.01667-0.05 0.25-0.10833 0.13333-0.04167 0.18333-0.125 0.125-0.15 0.58333-0.25833 0.29167-0.06667 0.225-0.225 0.30833-0.08333 0.175-0.10833 0.125-0.02499 0.26667-0.15833 0.08333-0.13333 0.11667-0.175 0.09167-0.1 0.15833-0.175 0.09167v0.16667l0.10833 0.15833-0.075 0.05833h-0.225l-0.10833 0.15-0.03333 0.45-0.05 0.125h-0.45833l-0.15-0.08333-0.175-0.03333-0.05833 0.19167-0.20833 0.0083-0.74167 1.325-0.01667 0.075-0.25833-0.01667-0.15833 0.09167-0.24167 0.29167-0.075 0.2-0.03333 0.45833-0.125 0.14167-0.02499 0.2 0.2 0.29167-0.03333 0.21667-0.2 0.28333-0.38333 0.01667-0.04167 0.19167v0.225l-0.26667 0.14167v0.29167l-0.01667-0.01667-0.05833 0.03333-0.04167 0.19167v0.23333l0.05833 0.16667 0.23333 0.01667 0.16667 0.25-0.28333 0.33333-0.16667 0.34167-0.04167 0.175-0.23333 0.38333-0.11667 0.43333-0.15833 0.23333-0.31667 0.9 0.02499 0.90833-0.04167 0.18333 0.0083 0.11667h50.85l0.016667-1.45 0.15833-0.18333 0.058333-0.41667 0.18333-0.075 0.125-0.13333-0.091667-0.14167-0.016667-0.15833 0.10833-0.125 0.10833-0.84167 0.075-0.15 0.033333-0.2 0.1-0.13333-0.091667-0.30833-0.1-0.075 0.00832-0.21667 0.083333-0.16667v-0.21667l0.2-0.14167 0.425-0.65833 0.16667-0.78333-0.058333-0.16667v-1.275l0.15833-0.41667 0.31667-0.425 0.033333-0.21667 0.225-0.475 0.033333-0.2 0.075-0.16667v-0.23333l0.23333-0.525 0.041667-0.40833 0.075-0.15 0.016667-0.68333 0.066667-0.2 0.075-0.88333 0.058333-0.16667-0.00832-0.675-0.175-0.375 0.125-0.36667 0.14167-0.13333 0.075-0.2 0.125-0.10833h0.18333l0.083333 0.13333 0.23333-0.01667 0.091667-0.36667h-0.19167l0.13333-0.30833 0.18333-0.05833-0.075-0.15 0.041667-0.2 0.175 0.04167 0.11667-0.40833v-0.23333l-0.875-0.90833-0.058333-0.4-0.075-0.15-0.016667-1.4417 0.18333-0.325 0.425-0.40833 0.18333-0.1 0.39167-0.45 0.16667-0.058333 0.16667-0.3 0.05 0.033333 0.033333-0.058333 0.058333-0.63333 0.091667-0.091667-0.29167-0.525v-0.69167l0.125-0.4 0.475-0.64167 0.15-0.091667 0.10833-0.13333 0.18333-0.05 0.4-0.35 0.2-0.033333 0.15134-0.1171 0.3667-0.6667 0.4333-0.0416 0.024987-0.016667 0.1-0.23333 0.18333-0.075 0.13333-0.325 0.14167-0.1 0.016667-0.675 0.325-0.475 0.26667-0.25 0.11667-0.18333 0.175-0.075 0.075-0.15833-0.00832-0.64167-0.091667-0.15 0.016667-0.45 0.3-0.58333 0.05-0.18333 0.18333-0.30833 0.066667-1.3167 0.058333-0.2 0.10833-0.14167v-0.25833l0.11667-0.425 0.21667-0.29167 0.058333-0.21667 0.325-0.2 0.125-0.14167 0.15-0.31667 0.016667-0.21667 0.55-0.51667 0.55833-0.23333h0.225l0.066667-0.033333-0.175-0.091667-0.11667-0.125-0.091667-0.15v-0.23333l-0.30833-0.18333-0.058333-0.6 0.20833-0.13333 0.10833-0.15833 0.4-0.075 0.33333-0.20833 0.2-0.05 0.066667-0.2-0.016667-0.18333-0.075-0.21667-0.016667-0.21667-0.091667-0.13333-0.033333-0.43333 0.091667-0.13333-0.10833-0.175 0.083333-0.175h0.225l-0.033333-0.175-0.11667-0.10833-0.033333-0.05833 0.18333-0.075-0.15 0.03333-0.21667-0.08333-0.016667-0.15-0.29167-0.26667 0.05-0.19167 0.20833-0.01667 0.19167 0.10833 0.024987 0.21667 0.21667-0.01667 0.18333-0.1-0.44167-0.44167-0.36667-0.11667-0.05-0.09167-0.066667-0.02499-0.19167-0.26667-0.016667-0.15833-0.44167-1.1083-0.016667-0.45833-0.1-0.13333 0.05-0.075v-0.25l-0.058333-0.2 0.058333-1.2417-0.35-0.38333-0.10833-0.18333v-0.2l-0.16667-0.2-0.075-0.40833 0.00832-0.21667-0.125-0.125 0.066667-1.7083 0.075-0.25833v-0.225l0.15833-0.34167-0.033333-0.44167 0.11667-0.36667 0.016667-0.21667 0.29167-0.63333 0.033333-0.20833 0.15833-0.26667 0.18333-0.09167 0.11667-0.35 0.10833-0.14167 0.16667-0.05833 0.45833-0.54167 0.15833-0.075 0.38333-0.44167 0.033333-0.425 0.058333-0.19167 0.34167-0.19167 0.18333-0.05 0.18333-0.25833 0.14167-0.11667 0.15-0.075 0.3-0.425 0.033333-0.225 0.21667-0.13333 0.21667-0.02499 0.15-0.06667 0.14167-0.13333 0.2-0.03333 0.15-0.09167 0.23333-0.01667 0.475-0.20833 0.09167-0.19167 0.21667-0.0083 0.08333-0.14167 0.34167-0.15 0.09167-0.16667 0.23333-0.01667 0.08333-0.175 0.0083-0.18333-0.23333-0.24167-0.16667 0.01667-0.14167 0.125-0.13333-0.26667-0.16667-0.05833-0.10833-0.125-0.18333-0.04167-0.21667 0.0083-0.1 0.10833-0.20833 0.125-0.49167-0.04167-0.6-0.49167-0.041667-0.175v-0.69167l-0.075-0.09167 0.16667-0.11667-0.033333-0.075-0.5-0.50833-0.15833-0.375 0.18333-0.55 0.18333-0.125 0.05-0.175-0.083333-0.15833-0.11667-0.10833-0.075-0.10833 0.091667-0.15 0.15-0.09167v-0.23333l-0.21667-0.0083-0.2 0.04167-0.11667 0.125-0.41667 0.13333h-0.23333l-0.71667-0.15-0.18333 0.075-0.175-0.075-0.53333-0.01667-0.35-0.10833-0.16667 0.09167-0.15833 0.15h-0.2l-0.125-0.15 0.05-0.2 0.091667-0.15 0.075-0.075h-0.23333l-0.19167 0.075h-0.23333l-0.10833-0.14167 0.058333-0.40833-0.20833 0.01667-0.29167 0.175-0.26667-0.24167-0.225-0.01667-0.10833-0.075v-0.25833l-0.2-0.05-0.091667 0.16667-0.18333 0.05-0.041667-0.18333h-0.15833l0.058333 0.18333 0.175 0.25-0.21667 0.26667-0.34167 0.25-0.15 0.01667 0.275-0.26667-0.091667-0.16667v-0.38333l-0.18333-0.0083-0.16667-0.09167-0.21667-0.03333-0.25-0.25h-0.475l-0.13333-0.09167 0.033333-0.16667-0.091667-0.18333-0.2-0.04167-0.15833-0.125-0.18333-0.06667-0.2-0.13333-0.058333-0.15833 0.075-0.18333 0.35-0.16667-0.033333-0.09167-0.13333-0.125 0.125-0.13333 0.16667-0.09167 0.15-0.14167-0.041667-0.13333-0.55 0.475-0.76667 0.04167-0.59989-0.61662-0.033333-0.15 0.15-0.15833-0.075-0.15h-0.24167l-0.16667-0.075-0.25-0.25 0.066667-0.45833-0.05-0.21667-0.075-0.15-0.14167-0.11667-0.44167-0.63333-0.38333-0.125-0.21667-0.275-0.16667-0.09167h-0.23333l-0.16667-0.10833-0.125-0.13333-0.15-0.09167-0.05-0.01667h-0.00832z"
     style="fill:#000095;fill-opacity:1" />
  <path
     id="four_rays"
     fill="#fff"
     d="m-17.633-31.567-5.4083 19.992 5.4083-1.425 5.4 1.4167-5.4-19.983zm5.4 19.983 1.4417 5.3333-1.4417 5.3333 16.4-4.3167 0.024987-0.1 0.21667-0.29167 0.058333-0.21667 0.325-0.2 0.125-0.14167 0.15-0.31667 0.016667-0.21667 0.25833-0.24167-17.575-4.625zm0 10.667-5.4 1.425-5.4083-1.425 5.4083 19.992 5.4-19.992zm-10.808 0-1.4417-5.3333 1.4417-5.325-13.425 3.525-0.06667 0.16667-0.625 0.83333-0.075 0.16667-0.375 0.475-0.45833 0.38333-0.38333 0.14167-0.02499 0.275-0.38333 0.53333 15.817 4.1583z" />
  <use
     id="use9"
     xlink:href="#four_rays"
     transform="matrix(.86603 .49296 -.50715 .86603 -5.5305 7.8572)"
     height="160"
     width="240"
     y="0"
     x="0" />
  <use
     id="use11"
     xlink:href="#four_rays"
     transform="matrix(.5 .85382 -.87840 .5 -14.305 11.935)"
     height="160"
     width="240"
     y="0"
     x="0" />
  <circle
     id="circle13"
     transform="matrix(.85605 0 0 .84399 -17.637 -6.2462)"
     cy="0"
     cx="0"
     r="17"
     fill="#082567" />
  <circle
     id="circle15"
     cy="0"
     transform="matrix(.85605 0 0 .84399 -17.637 -6.2462)"
     cx="0"
     r="15"
     fill="#fff" />
</svg>
