<?xml version="1.0" encoding="utf-8"?>
<!-- Designed by Vexels.com - 2020 All Rights Reserved - https://vexels.com/terms-and-conditions/  -->
<svg version="1.1" id="Capa_1" xmlns="http://www.w3.org/2000/svg" xmlns:xlink="http://www.w3.org/1999/xlink" x="0px" y="0px"
	 viewBox="0 0 1200 1200" enable-background="new 0 0 1200 1200" xml:space="preserve">
<g>
	<path fill="#606060" d="M574.808,940.076l7.241-0.804h-8.116C574.47,939.757,574.808,940.076,574.808,940.076z"/>
	<path fill="#606060" d="M143.823,259.924c0,0,0.027,0.305,0.068,0.831h4.029C145.837,260.269,144.225,259.924,143.823,259.924z"/>
	<path fill="#39386E" d="M571.105,569.979v-49.837v-53.237v-49.837v-53.237v-44.193c-29.44,0.137-61.882,0.224-63.006,0.31
		c-2.07,0.16-121.797-9.393-147.748-14.01s-35.026-9.553-39.166-11.304c-4.14-1.751-25.951-1.592-30.887-2.707
		c-4.936-1.115-28.021-2.388-29.773-3.503c-1.751-1.114-16.717-5.289-26.588-7.262c-9.871-1.973-62.729-16.302-72.123-16.938
		c0,0-8.551-2.219-13.894-3.468h-4.029c0.275,3.531,1.194,17.487-1.024,22.891c-2.548,6.21-3.662,9.712-3.98,13.374
		c-0.318,3.662-0.637,8.438-5.095,7.642c-4.458-0.796-9.393,0-8.916-2.866c0.478-2.866,11.463-16.399,12.896-18.31
		c1.433-1.91-7.165-4.458-11.622-6.846c-4.458-2.389-9.394-8.439-17.354-8.757c-7.961-0.318-7.165,7.96-6.687,8.757
		c0.478,0.796,4.936,19.105,4.299,22.608c-0.637,3.502,1.274,9.871,0.159,12.578c-1.114,2.707-4.776,3.344-4.776,3.344
		s-0.478,9.712-1.274,14.01c-0.796,4.299-10.349,28.817-13.215,35.823c-2.866,7.005-14.807,26.588-18.15,31.683
		c-3.343,5.095-5.068,8.545-5.068,8.545c-2.415,4.829,3.635,7.218,3.635,12.949s-3.184,11.145-3.184,11.145h-3.184
		c0,0-2.547,4.776,0,5.891c2.547,1.115,2.866,6.846,1.433,11.463c-1.433,4.617-6.369,12.418-9.075,14.488
		c-2.707,2.07-3.98,1.433-3.662,14.488c0.318,13.055,1.433,32.957,1.433,35.504c0,2.548,1.911,6.847,5.732,10.508
		c3.821,3.662,5.095,8.279,5.095,8.279s-4.617,2.548-4.14,5.732c0.478,3.184,0.637,7.164,3.98,10.349
		c3.343,3.184,3.821,12.418,3.821,14.488s1.751,8.597,1.751,8.597s5.891,5.095,5.891,6.05c0,0.956-4.299,11.304-3.821,14.966
		c0.478,3.662,6.528,18.787,8.279,21.494c1.079,1.668,3.366,7.021,5.075,11.595h487.961V569.979z M477.006,397.73l7.564,15.894
		l17.38,2.78l-12.778,12.105l2.727,17.389l-15.461-8.413l-15.695,7.967l3.223-17.304l-12.427-12.465l17.453-2.282L477.006,397.73z
		 M422.783,349.69l8.015-15.671l7.564,15.894l17.381,2.78l-12.779,12.104l2.727,17.389l-15.461-8.413l-15.695,7.967l3.223-17.304
		l-12.428-12.465L422.783,349.69z M382.506,397.73l7.564,15.894l17.38,2.78l-12.778,12.105l2.727,17.389l-15.461-8.413
		l-15.695,7.967l3.223-17.304l-12.428-12.465l17.453-2.282L382.506,397.73z M328.284,349.69l8.015-15.671l7.564,15.894l17.381,2.78
		l-12.779,12.104l2.727,17.389l-15.461-8.413l-15.695,7.967l3.223-17.304l-12.427-12.465L328.284,349.69z M288.007,397.73
		l7.564,15.894l17.381,2.78l-12.778,12.105l2.727,17.389l-15.461-8.413l-15.695,7.967l3.223-17.304l-12.428-12.465l17.453-2.282
		L288.007,397.73z M233.785,349.69l8.015-15.671l7.564,15.894l17.381,2.78l-12.779,12.104l2.727,17.389l-15.461-8.413l-15.695,7.967
		l3.223-17.304l-12.427-12.465L233.785,349.69z M193.507,397.73l7.564,15.894l17.381,2.78l-12.778,12.105l2.727,17.389
		l-15.461-8.413l-15.695,7.967l3.223-17.304l-12.428-12.465l17.453-2.282L193.507,397.73z M139.285,349.69l8.015-15.671
		l7.564,15.894l17.381,2.78l-12.779,12.104l2.727,17.389l-15.461-8.413l-15.695,7.967l3.223-17.304l-12.427-12.465L139.285,349.69z
		 M146.732,506.659l-15.695,7.967l3.223-17.304l-12.427-12.465l17.453-2.282l8.015-15.671l7.564,15.894l17.381,2.779l-12.779,12.105
		l2.727,17.389L146.732,506.659z M208.4,578.784l-15.461-8.413l-15.695,7.967l3.223-17.304L168.04,548.57l17.453-2.282l8.014-15.671
		l7.564,15.894l17.381,2.78l-12.778,12.105L208.4,578.784z M241.231,506.659l-15.695,7.967l3.223-17.304l-12.427-12.465
		l17.453-2.282l8.015-15.671l7.564,15.894l17.381,2.779l-12.779,12.105l2.727,17.389L241.231,506.659z M302.9,578.784l-15.461-8.413
		l-15.695,7.967l3.223-17.304l-12.428-12.465l17.453-2.282l8.014-15.671l7.564,15.894l17.381,2.78l-12.778,12.105L302.9,578.784z
		 M335.731,506.659l-15.695,7.967l3.223-17.304l-12.427-12.465l17.453-2.282l8.015-15.671l7.564,15.894l17.381,2.779l-12.779,12.105
		l2.727,17.389L335.731,506.659z M397.4,578.784l-15.461-8.413l-15.695,7.967l3.223-17.304l-12.428-12.465l17.453-2.282
		l8.014-15.671l7.564,15.894l17.38,2.78l-12.778,12.105L397.4,578.784z M430.23,506.659l-15.695,7.967l3.223-17.304l-12.428-12.465
		l17.453-2.282l8.015-15.671l7.564,15.894l17.381,2.779l-12.779,12.105l2.727,17.389L430.23,506.659z M491.899,578.784
		l-15.461-8.413l-15.695,7.967l3.223-17.304l-12.427-12.465l17.453-2.282l8.015-15.671l7.564,15.894l17.38,2.78l-12.778,12.105
		L491.899,578.784z M540.191,515.072l-15.461-8.413l-15.695,7.967l3.223-17.304l-12.428-12.465l17.453-2.282l8.015-15.671
		l7.564,15.894l17.381,2.779l-12.779,12.105L540.191,515.072z M537.464,364.797l2.727,17.389l-15.461-8.413l-15.695,7.967
		l3.223-17.304l-12.428-12.465l17.453-2.282l8.015-15.671l7.564,15.894l17.381,2.78L537.464,364.797z"/>
	<g>
		<path fill="#B31D31" d="M1079.052,313.993h49.693c-0.18-11.266,0.003-29.024-12.061-31.341
			c-14.926-2.866-13.016,7.284-21.374,2.866c-8.359-4.419-7.642-5.336-9.314-3.384c-1.672,1.951-7.881,17.474-7.284,22.37
			C1078.913,306.146,1079.017,309.778,1079.052,313.993z"/>
		<path fill="#B31D31" d="M625.915,312.464c-0.879,0.22-1.827,0.805-2.745,1.529h6.57
			C628.46,312.848,627.081,312.173,625.915,312.464z"/>
		<path fill="#B31D31" d="M806.939,407.673c-0.811,2.702-2.102,6.54-5.483,9.395h45.5c-0.923-5.8-2.791-11.196-5.786-13.216
			c-6.846-4.617-17.036-6.527-20.22-6.05C817.765,398.28,807.894,404.488,806.939,407.673z"/>
		<path fill="#B31D31" d="M1036.282,363.831c-2.334,3.42-6.244,13.261-8.915,15.184c-2.985,2.149-20.658,2.866-29.255,11.582
			c-8.598,8.717-18.15,16.478-18.269,20.539c-0.076,2.572,0.9,4.046,1.536,5.932h120.262c2.437-1.366,4.472-3.259,4.058-5.693
			c-0.955-5.612-0.955-5.612-0.955-5.612l-7.761-0.531v-10.694c0,0,11.344-10.985,13.373-14.568c2.03-3.582,6.687-2.985,6.687-2.985
			l0.955-6.448c0,0,13.971-4.896,15.046-4.896c0.352,0,0.603-0.736,0.909-1.81H1036.282z"/>
		<path fill="#B31D31" d="M774.325,417.068h2.364c0.389-1.392,0.431-2.203-0.32-1.753
			C775.951,415.567,775.208,416.241,774.325,417.068z"/>
		<path fill="#B31D31" d="M766.18,415.633c0.637-1.274,9.871-15.921,12.896-15.603c3.025,0.319,4.299,2.07,7.324-1.433
			c3.025-3.503,5.572-4.617,10.985-6.05c5.413-1.433,10.349-3.821,10.349-3.821s4.139-17.673-7.165-16.876
			c-11.304,0.796-12.896-1.274-16.08,2.229c-3.184,3.502-9.234,10.03-11.463,6.846c-2.229-3.184-7.164-8.756-12.896-9.393
			c-5.732-0.637-11.463,3.025-13.533,0.478c-1.347-1.658,4.166-4.868,6.92-8.179h-12.486c-5.442,4.144-10.988,9.053-13.699,9.771
			c-5.413,1.433-9.075,7.483-14.647,9.234c-5.572,1.751-7.324,0.159-7.324,0.159s0.637-5.254-3.343-6.21
			c-3.98-0.956-10.667,6.369-14.648,6.05c-3.98-0.319-5.732-2.707-5.732-2.707s8.094-8.611,16.433-16.299H571.105v53.237h194.858
			C765.948,416.486,766.009,415.976,766.18,415.633z"/>
		<path fill="#B31D31" d="M1058.055,480.154c-5.851,0.597-10.269,0.478-10.269,0.478s11.583-8.359,16.598-10.508
			c2.036-0.873,4.225-2.076,6.329-3.218H931.448c-8.841,6.006-29.138,18.288-32.326,20.413c-3.94,2.627-4.537,8.12-10.03,9.791
			c-5.493,1.672-5.731-0.478-7.523,2.627c-1.791,3.105-2.388,6.926-7.761,5.971c-5.374-0.956-5.493-4.657-9.195-4.657
			c-3.702,0-11.105-0.835-11.105-0.835s4.06-13.613,8.478-16.598c4.418-2.985,10.627-3.224,10.03-6.926
			c-0.333-2.062-1.207-5.871-1.722-9.786H789.97c0.133,0.796,0.301,1.526,0.569,2.064c1.592,3.184,9.394,13.055,8.279,17.036
			c-1.115,3.98-5.891,15.762-7.324,16.558c-1.433,0.796-6.05,4.776-6.05,5.254c0,0.478-6.368,2.229-7.164,2.707
			c-0.796,0.478-3.662,0-3.662,0s-1.274-10.985-3.821-15.762c-2.547-4.776-5.254-17.991-5.413-21.334
			c-0.097-2.029-0.244-4.006,0.111-6.522H571.105v53.237h479.413c0.903-3.839,1.447-7.298,1.447-8.823
			c0-3.502,0.358-10.508-0.955-12.18c-1.313-1.671-8.717-6.925-8.717-6.925s13.613,0,15.762-3.463
			c2.149-3.463,8.358-4.896,8.358-4.896s12.896-9.433,11.344-14.687C1077.757,469.168,1063.906,479.557,1058.055,480.154z"/>
		<path fill="#B31D31" d="M1018.04,569.979c2.121,6.46,4.286,14.042,3.993,15.214c-0.477,1.911,0.955,9.553,0.955,9.553
			s12.749-10.508,13.698-21.016c0.118-1.302,0.141-2.551,0.093-3.751H1018.04z"/>
		<path fill="#B31D31" d="M1030.631,609.075c0,0-3.98-6.846-9.712-9.075c-5.732-2.229-5.573-7.483-5.573-7.483l1.592-5.254
			c0,0-4.367-10.652-5.77-17.284H571.105v53.238h460.02l-2.723-9.207L1030.631,609.075z"/>
		<path fill="#B31D31" d="M124.24,682.153c0.478,0.637,14.647,1.752,17.991,5.095c3.344,3.343,1.911,10.03,1.911,10.508
			c0,0.478-4.617-2.229-4.776,2.707c-0.159,4.936,6.05,12.737,6.05,12.737s1.433,2.547,17.832,4.14
			c16.399,1.592,30.728,0.637,30.728,0.637l1.115,6.209c0,0,0.186,0.926,0.521,2.106h772.011c2.791-5.708,8.294-17.205,9.355-21.212
			c1.433-5.414,14.17-15.762,14.17-15.762s12.578-7.165,16.239-13.055c0.608-0.979,1.517-2.072,2.593-3.208h-888.11
			C122.896,677.371,123.998,681.83,124.24,682.153z"/>
		<path fill="#B31D31" d="M961.533,825.284c-3.502-3.503-21.653-31.842-23.245-38.37c-0.501-2.053-0.749-6.092-0.766-10.785H378.302
			c7.307,7.522,21.055,22.059,23.603,27.503c3.417,7.3,6.247,18.959,11.557,25.735h349.061c-2.189-3.142-6.88-9.103-5.257-10.61
			c2.229-2.07,15.762-3.025,15.762-3.025s4.299,2.866,6.369,1.911c2.07-0.956,1.751-3.503,2.547-3.662
			c0.796-0.159,3.821,1.433,4.617,1.433c0.796,0,4.776-2.069,5.731-1.91c0.955,0.159,13.692,0,13.692,0s5.413-6.687,13.214-6.05
			c7.802,0.637,16.399,3.662,16.399,3.662l4.458-0.159c0,0,7.483,2.388,10.986,7.483c3.503,5.095,9.712,3.821,9.712,3.821
			l9.553-1.115c0,0,6.209-8.757,12.578-8.916c6.368-0.159,14.807,10.031,16.876,12.418c1.134,1.308,4.178,2.952,7.171,4.719h57.716
			C963.349,827.485,962.256,826.007,961.533,825.284z"/>
		<path fill="#B31D31" d="M525.294,898.362c1.433,9.871,7.165,21.653,14.807,25.474c7.642,3.821,21.652,7.005,25.314,8.915
			c2.797,1.46,6.783,4.947,8.518,6.52h8.116l1.357-0.151c0,0-3.503-19.742-5.095-30.25c-1.592-10.508,2.229-19.424,5.095-19.742
			c1.245-0.138,2.189-1.479,2.963-3.094h-64.526C523.323,889.095,524.522,893.042,525.294,898.362z"/>
		<path fill="#B31D31" d="M927.87,886.034c0.024,0.02,0.046,0.05,0.07,0.07c5.254,4.299,12.896,2.388,13.056,4.617
			c0.159,2.229,4.139,9.712,5.731,13.533c1.592,3.821-1.911,4.299,2.547,7.801c4.458,3.503,13.055,3.503,14.17,5.414
			c1.115,1.911,0.637,11.304,9.951,10.11c9.314-1.194,15.045-9.075,14.807-10.985c-0.156-1.247-0.143-17.973-0.822-30.559H927.87z"
			/>
	</g>
	<g>
		<path fill="#FFFFFF" d="M1031.745,625.315l-0.62-2.098h-460.02H83.144c1.064,2.847,1.906,5.394,2.09,6.556
			c0.478,3.025-1.115,9.234-1.115,10.189c0,0.955,2.707,8.916,6.846,9.075c4.139,0.159,12.737,0.955,12.737,0.955
			s3.662,8.757,5.572,11.782c1.911,3.025,10.667,3.025,10.667,3.025s0.928,4.061,1.927,8.255h888.11
			c5.401-5.7,15.476-12.58,18.264-12.713c3.343-0.159,1.751-11.463,1.751-11.463s2.707-3.662,5.891-11.304
			C1039.069,629.932,1031.745,625.315,1031.745,625.315z"/>
		<path fill="#FFFFFF" d="M571.105,569.979h440.063h6.872h18.74c-0.339-8.473-4.318-14.336-4.876-17.265
			c-0.637-3.344-0.637-11.941-0.637-11.941s10.826-2.07,14.329-7.165c1.977-2.876,3.751-8.491,4.921-13.467H571.105V569.979z"/>
		<path fill="#FFFFFF" d="M1129.103,320.624c-0.252-1.648-0.315-3.959-0.358-6.631h-49.693c0.069,8.347-0.141,19.018-0.459,21.318
			c-0.478,3.463-5.612,13.612-11.941,19.225c-6.328,5.612-7.523,5.851-7.523,5.851s-19.941,0.597-22.09,2.508
			c-0.226,0.2-0.483,0.534-0.757,0.936h97.671c0.629-2.206,1.497-5.856,3.986-7.623c3.702-2.627,11.941-6.687,12.061-10.508
			C1150.119,341.879,1130.416,329.222,1129.103,320.624z"/>
		<path fill="#FFFFFF" d="M789.97,466.905h80.324c-0.41-3.112-0.598-6.29-0.069-8.723c1.194-5.493-8.478-18.508-9.552-22.33
			c-1.075-3.821-11.463,7.642-14.09,10.627c-2.627,2.985-8.12,4.418-8.239-0.836c-0.12-5.254,5.134-6.09,7.881-10.508
			c1.545-2.485,1.918-10.612,0.731-18.069h-45.5c-0.604,0.509-1.252,0.997-2,1.431c-4.936,2.866-7.642,6.846-8.916,12.578
			c-1.273,5.731-3.502,18.786-1.91,22.449C789.953,456.569,789.316,462.984,789.97,466.905z"/>
		<path fill="#FFFFFF" d="M766.977,461.168c2.07-5.731-0.318-16.081,1.592-18.787c1.911-2.707,4.776-0.159,5.254-3.343
			c0.477-3.185-0.637-11.782,0.796-15.921c0.758-2.188,1.634-4.487,2.071-6.049h-2.364c-2.468,2.311-6.05,5.83-6.871,4.775
			c-0.815-1.048-1.453-3.195-1.492-4.775H571.105v49.837h194.391C765.726,465.274,766.163,463.422,766.977,461.168z"/>
		<path fill="#FFFFFF" d="M940.517,749.818c2.866-3.98,11.463-16.559,15.444-16.877c3.98-0.318,10.03-3.343,10.03-3.343
			s0.651-1.304,1.63-3.307H195.61c0.544,1.917,1.481,4.505,2.663,4.899c1.911,0.637,42.828,18.309,52.381,25.474
			c9.553,7.164,21.175,13.215,28.021,14.011c6.846,0.796,36.778,2.547,36.778,2.547l2.301,2.907h18.491
			c-0.064-2.26,0.428-7.939,7.069-7.683c8.279,0.318,13.055,0.318,15.284,1.592c2.229,1.273,7.165,4.299,7.165,4.299l7.961-2.866
			c0,0,1.84,1.84,4.577,4.658h559.221C937.487,765.898,938.552,752.547,940.517,749.818z"/>
		<path fill="#FFFFFF" d="M1118.356,426.659c-6.329-2.985-5.493,7.881-7.165,8.239c-1.672,0.358-5.97-2.03-7.165-3.224
			c-1.194-1.194-7.284-1.075-7.284-1.075l-2.149-10.866c0,0,3.865-0.883,7.047-2.665H981.379c0.368,1.091,0.625,2.316,0.493,3.979
			c-0.358,4.538-4.299,15.523-11.344,17.553c-7.045,2.03-8.598-1.911-10.747-1.075c-2.149,0.836-3.582,3.463-8.239,3.702
			c-4.657,0.239-5.135-2.985-8.597-2.508c-3.463,0.478-6.448,3.344-7.284,6.448c-0.836,3.104-2.03,8.478-0.478,10.747
			c1.553,2.268,2.508,5.373,0.239,8c-0.433,0.502-1.886,1.573-3.974,2.991h139.265c3.077-1.671,5.965-3.207,7.88-3.349
			c3.224-0.239,6.567-3.105,6.567-3.105s-5.254-6.806-4.299-9.075c0,0,6.806,4.538,9.075,4.538c2.269,0,8.717-2.388,11.225-3.821
			c2.508-1.433,10.269-8.358,14.209-8.358c3.941,0,6.329-5.135,6.329-5.135S1124.685,429.644,1118.356,426.659z"/>
		<path fill="#FFFFFF" d="M754.08,358.636c-2.305-2.305-7.625,1.064-13.049,5.194h12.486
			C754.995,362.054,755.693,360.248,754.08,358.636z"/>
		<path fill="#FFFFFF" d="M713.959,352.108c7.483-1.592,6.05-4.936,4.936-8.757c-1.115-3.821-14.329-1.115-14.329-2.388
			c0-1.273-0.478-1.911-3.184-1.273c-2.707,0.637-14.329,0.796-15.444,2.069c-1.115,1.274-2.866-3.343-2.866-3.343
			s-7.165-3.98-7.483-3.502c-0.319,0.478-1.592,7.164-1.592,7.164s-4.458-5.254-6.687-8.597c-2.229-3.343-20.22-2.707-22.608-3.662
			c-2.388-0.956-9.075,1.592-9.553,1.273c-0.478-0.318-4.14-2.388-4.14-2.388s2.866-3.343,2.866-7.005
			c0-2.321-1.919-5.724-4.135-7.706h-6.57c-2.406,1.895-4.579,4.812-4.579,5.158c0,0.219-22.677,0.37-47.487,0.486v44.193h126.967
			C704.341,358.05,710.748,352.792,713.959,352.108z"/>
		<path fill="#FFFFFF" d="M980.957,852.669c-3.159-2.527-11.321-16.063-16.31-23.302H906.93c2.471,1.46,4.907,3.003,6.203,4.515
			c2.866,3.344,5.732,8.12,5.732,10.827c0,2.706-3.344,11.782-1.751,15.125c1.585,3.328,5.537,21.794,10.757,26.2h59.509
			c-0.362-6.706-0.92-12.239-1.805-13.623C983.026,868.43,984.937,855.853,980.957,852.669z"/>
		<path fill="#FFFFFF" d="M756.309,837.225c0.796-1.751,5.891-5.891,7.165-5.891c0.347,0-0.133-0.793-0.952-1.968H413.462
			c0.133,0.169,0.248,0.372,0.384,0.535c5.573,6.687,15.125,12.419,18.946,16.399c3.821,3.981,8.439,5.095,13.692,4.936
			c5.254-0.16,5.891-19.584,19.424-19.265c13.533,0.318,16.08,2.865,21.494,7.005c5.413,4.14,13.373,5.572,15.284,15.921
			c1.911,10.349,11.304,21.653,14.807,24.996c1.615,1.542,3.085,3.521,4.351,6.14h64.526c1.009-2.103,1.73-4.671,2.45-5.662
			c1.273-1.751,20.379-10.827,26.27-13.056c5.891-2.229,11.463-10.667,14.966-14.807c3.502-4.14,7.005-8.757,7.005-8.757
			s3.502,3.821,5.572,3.025c2.07-0.796,4.617-6.846,10.03-7.324c5.413-0.478,11.941-0.796,11.941-0.796s1.911-9.234,6.687-8.12
			c4.776,1.114,6.209,13.055,15.125,11.782c8.916-1.274,15.444-8.12,15.444-8.12s18.787,14.17,26.748,14.807
			c7.96,0.637,9.871-2.707,9.871-2.707l6.846,3.025l2.548-10.349c0,0,5.572,3.503,10.508,7.324c4.936,3.821,10.189,2.07,10.189,2.07
			S755.513,838.976,756.309,837.225z"/>
		<polygon fill="#FFFFFF" points="131.037,381.741 146.732,373.773 162.193,382.186 159.465,364.797 172.244,352.693 
			154.863,349.912 147.3,334.019 139.285,349.69 121.832,351.972 134.259,364.437 		"/>
		<polygon fill="#FFFFFF" points="225.536,381.741 241.231,373.773 256.692,382.186 253.965,364.797 266.744,352.693 
			249.363,349.912 241.799,334.019 233.785,349.69 216.332,351.972 228.759,364.437 		"/>
		<polygon fill="#FFFFFF" points="320.036,381.741 335.731,373.773 351.192,382.186 348.465,364.797 361.243,352.693 
			343.862,349.912 336.299,334.019 328.284,349.69 310.831,351.972 323.259,364.437 		"/>
		<polygon fill="#FFFFFF" points="414.535,381.741 430.23,373.773 445.691,382.186 442.964,364.797 455.743,352.693 
			438.362,349.912 430.798,334.019 422.783,349.69 405.33,351.972 417.758,364.437 		"/>
		<polygon fill="#FFFFFF" points="509.035,381.741 524.73,373.773 540.191,382.186 537.464,364.797 550.242,352.693 
			532.861,349.912 525.298,334.019 517.283,349.69 499.83,351.972 512.258,364.437 		"/>
		<polygon fill="#FFFFFF" points="180.467,428.149 177.244,445.452 192.939,437.485 208.4,445.897 205.673,428.509 218.452,416.404 
			201.071,413.624 193.507,397.73 185.493,413.402 168.04,415.684 		"/>
		<polygon fill="#FFFFFF" points="274.967,428.149 271.744,445.452 287.439,437.485 302.9,445.897 300.173,428.509 312.951,416.404 
			295.57,413.624 288.007,397.73 279.992,413.402 262.539,415.684 		"/>
		<polygon fill="#FFFFFF" points="369.466,428.149 366.243,445.452 381.938,437.485 397.4,445.897 394.672,428.509 407.45,416.404 
			390.07,413.624 382.506,397.73 374.492,413.402 357.039,415.684 		"/>
		<polygon fill="#FFFFFF" points="463.966,428.149 460.743,445.452 476.438,437.485 491.899,445.897 489.172,428.509 
			501.95,416.404 484.569,413.624 477.006,397.73 468.991,413.402 451.538,415.684 		"/>
		<polygon fill="#FFFFFF" points="131.037,514.627 146.732,506.659 162.193,515.072 159.465,497.683 172.244,485.578 
			154.863,482.799 147.3,466.905 139.285,482.576 121.832,484.858 134.259,497.323 		"/>
		<polygon fill="#FFFFFF" points="249.363,482.799 241.799,466.905 233.785,482.576 216.332,484.858 228.759,497.323 
			225.536,514.627 241.231,506.659 256.692,515.072 253.965,497.683 266.744,485.578 		"/>
		<polygon fill="#FFFFFF" points="343.862,482.799 336.299,466.905 328.284,482.576 310.831,484.858 323.259,497.323 
			320.036,514.627 335.731,506.659 351.192,515.072 348.465,497.683 361.243,485.578 		"/>
		<polygon fill="#FFFFFF" points="438.362,482.799 430.798,466.905 422.783,482.576 405.33,484.858 417.758,497.323 
			414.535,514.627 430.23,506.659 445.691,515.072 442.964,497.683 455.743,485.578 		"/>
		<polygon fill="#FFFFFF" points="532.861,482.799 525.298,466.905 517.283,482.576 499.83,484.858 512.258,497.323 
			509.035,514.627 524.73,506.659 540.191,515.072 537.464,497.683 550.242,485.578 		"/>
		<polygon fill="#FFFFFF" points="201.071,546.51 193.507,530.617 185.493,546.288 168.04,548.57 180.467,561.035 177.244,578.338 
			192.939,570.371 208.4,578.784 205.673,561.395 218.452,549.29 		"/>
		<polygon fill="#FFFFFF" points="295.57,546.51 288.007,530.617 279.992,546.288 262.539,548.57 274.967,561.035 271.744,578.338 
			287.439,570.371 302.9,578.784 300.173,561.395 312.951,549.29 		"/>
		<polygon fill="#FFFFFF" points="390.07,546.51 382.506,530.617 374.492,546.288 357.039,548.57 369.466,561.035 366.243,578.338 
			381.938,570.371 397.4,578.784 394.672,561.395 407.45,549.29 		"/>
		<polygon fill="#FFFFFF" points="484.569,546.51 477.006,530.617 468.991,546.288 451.538,548.57 463.966,561.035 460.743,578.338 
			476.438,570.371 491.899,578.784 489.172,561.395 501.95,549.29 		"/>
	</g>
</g>
</svg>
